<?xml version="1.0" standalone="no"?>
<!DOCTYPE svg PUBLIC "-//W3C//DTD SVG 20010904//EN"
 "http://www.w3.org/TR/2001/REC-SVG-20010904/DTD/svg10.dtd">
<svg version="1.0" xmlns="http://www.w3.org/2000/svg"
 width="519.000000pt" height="295.000000pt" viewBox="0 0 519.000000 295.000000"
 preserveAspectRatio="xMidYMid meet">

<g transform="translate(0.000000,295.000000) scale(0.100000,-0.100000)"
 fill="#ff88ff" stroke="none">
<path d="M1080 2505 l395 -395 182 182 183 183 -212 212 -213 213 -365 0 -365
0 395 -395z"/>
<path d="M1650 1935 l-965 -965 365 0 365 0 965 965 965 965 -365 0 -365 0
-965 -965z"/>
<path d="M3763 2118 l-783 -783 -213 213 -212 212 -178 -178 c-97 -97 -177
-182 -177 -187 0 -5 93 -103 207 -217 l208 -208 365 0 365 0 603 603 602 602
-2 363 -3 362 -782 -782z"/>
<path d="M4115 1390 l-420 -420 428 0 427 0 0 420 c0 231 -3 420 -8 420 -4 0
-196 -189 -427 -420z"/>
<path d="M543 588 l-153 -153 -138 138 c-120 119 -141 137 -170 137 -17 0 -32
-3 -32 -7 0 -4 68 -75 150 -158 l150 -150 -135 -135 c-126 -125 -135 -137
-135 -172 0 -21 3 -38 7 -38 4 0 75 68 158 150 l150 150 135 -135 c128 -128
137 -135 175 -135 l40 0 -155 155 -155 155 138 138 c127 127 137 140 137 175
0 20 -3 37 -8 37 -4 0 -76 -69 -159 -152z"/>
<path d="M1230 395 l-315 -315 40 0 c39 0 47 7 292 252 l253 253 0 -253 0
-252 25 0 25 0 0 315 c0 173 -1 315 -3 315 -1 0 -144 -142 -317 -315z"/>
<path d="M1750 685 l0 -25 315 0 315 0 0 25 0 25 -315 0 -315 0 0 -25z"/>
<path d="M2590 395 l0 -315 315 0 315 0 0 25 0 25 -290 0 -290 0 0 290 0 290
-25 0 -25 0 0 -315z"/>
<path d="M3420 395 l0 -315 25 0 25 0 0 315 0 315 -25 0 -25 0 0 -315z"/>
<path d="M3680 685 l0 -25 145 0 145 0 0 -290 0 -290 25 0 25 0 0 290 0 290
145 0 145 0 0 25 0 25 -315 0 -315 0 0 -25z"/>
<path d="M4510 395 l0 -315 25 0 25 0 0 145 0 145 265 0 265 0 0 -145 0 -145
25 0 25 0 0 315 0 315 -25 0 -25 0 0 -145 0 -145 -265 0 -265 0 0 145 0 145
-25 0 -25 0 0 -315z"/>
<path d="M1750 395 l0 -25 315 0 315 0 0 25 0 25 -315 0 -315 0 0 -25z"/>
<path d="M1750 105 l0 -25 315 0 315 0 0 25 0 25 -315 0 -315 0 0 -25z"/>
</g>
</svg>
